<?xml version="1.0" encoding="iso-8859-1"?>
<!-- Generator: Adobe Illustrator 16.0.0, SVG Export Plug-In . SVG Version: 6.00 Build 0)  -->
<!DOCTYPE svg PUBLIC "-//W3C//DTD SVG 1.1//EN" "http://www.w3.org/Graphics/SVG/1.1/DTD/svg11.dtd">
<svg xmlns="http://www.w3.org/2000/svg" xmlns:xlink="http://www.w3.org/1999/xlink" version="1.1" id="Capa_1" x="0px" y="0px" width="512px" height="512px" viewBox="0 0 39.268 39.268" style="enable-background:new 0 0 39.268 39.268;" xml:space="preserve">
<g>
	<path d="M12.091,24.444c0.12,0.181,0.18,0.396,0.18,0.651c0,0.302-0.085,0.562-0.255,0.774c-0.168,0.216-0.374,0.356-0.614,0.426   c-0.242,0.068-0.547,0.104-0.914,0.104H9.857c-0.211,0-0.34-0.013-0.387-0.035c-0.049-0.021-0.081-0.062-0.104-0.121   c-0.017-0.043-0.024-0.198-0.029-0.465v-1.873h1.119c0.49,0,0.855,0.045,1.096,0.138C11.792,24.133,11.972,24.268,12.091,24.444z    M39.268,6.468v21.891c0,0.553-0.445,1-1,1H18.833c-1.87,2.684-4.973,4.441-8.49,4.441C4.631,33.8,0,29.167,0,23.454   c0-2.442,0.852-4.686,2.268-6.453V6.468c0-0.552,0.447-1,1-1h35C38.822,5.468,39.268,5.916,39.268,6.468z M14.517,25.325   c0-0.385-0.092-0.733-0.273-1.045c-0.18-0.312-0.426-0.558-0.737-0.729c-0.214-0.124-0.522-0.237-0.931-0.341   c0.379-0.129,0.683-0.291,0.914-0.488c0.229-0.195,0.403-0.422,0.527-0.678c0.121-0.256,0.184-0.527,0.184-0.812   c0-0.393-0.115-0.755-0.346-1.082c-0.232-0.328-0.563-0.582-0.992-0.758c-0.168-0.068-0.367-0.12-0.58-0.16v-1.527h-1.467v1.424   h-0.94v-1.424H8.41v1.424H6.174v1.196h0.342c0.229,0,0.381,0.021,0.463,0.062c0.081,0.041,0.137,0.101,0.17,0.167   C7.182,20.625,7.2,20.786,7.2,21.045v4.825c0,0.254-0.018,0.414-0.051,0.486c-0.033,0.073-0.089,0.129-0.17,0.168   c-0.082,0.039-0.234,0.061-0.463,0.061H6.174v1.195H8.41v1.426h1.466V27.78h0.832c0.038,0,0.073-0.002,0.108-0.002v1.426h1.467   v-1.547c0.244-0.047,0.461-0.105,0.646-0.182c0.506-0.203,0.896-0.496,1.173-0.884C14.377,26.207,14.517,25.782,14.517,25.325z    M37.268,23.567H20.684c-0.014,1.34-0.283,2.619-0.763,3.791h17.347V23.567L37.268,23.567z M37.268,7.468h-33v7.628   c1.707-1.243,3.802-1.985,6.075-1.985c4.337,0,8.046,2.671,9.584,6.457h17.341V7.468L37.268,7.468z M11.387,22.509   c0.237-0.083,0.416-0.209,0.536-0.375c0.121-0.167,0.182-0.361,0.182-0.579c0-0.229-0.058-0.422-0.171-0.584   c-0.114-0.162-0.278-0.276-0.493-0.344c-0.217-0.068-0.602-0.104-1.154-0.104H9.339v2.109h0.948   C10.782,22.633,11.15,22.591,11.387,22.509z" fill="#ffffff"/>
</g>
<g>
</g>
<g>
</g>
<g>
</g>
<g>
</g>
<g>
</g>
<g>
</g>
<g>
</g>
<g>
</g>
<g>
</g>
<g>
</g>
<g>
</g>
<g>
</g>
<g>
</g>
<g>
</g>
<g>
</g>
</svg>
