<?xml version="1.0" encoding="iso-8859-1"?>
<!-- Generator: Adobe Illustrator 16.0.0, SVG Export Plug-In . SVG Version: 6.00 Build 0)  -->
<!DOCTYPE svg PUBLIC "-//W3C//DTD SVG 1.1//EN" "http://www.w3.org/Graphics/SVG/1.1/DTD/svg11.dtd">
<svg xmlns="http://www.w3.org/2000/svg" xmlns:xlink="http://www.w3.org/1999/xlink" version="1.1" id="Capa_1" x="0px" y="0px" width="512px" height="512px" viewBox="0 0 37 37" style="enable-background:new 0 0 37 37;" xml:space="preserve">
<g>
	<path d="M23.785,13.882H22.84v-2.103h0.945c0.553,0,0.938,0.035,1.15,0.103c0.213,0.068,0.377,0.183,0.491,0.343   c0.111,0.161,0.169,0.354,0.169,0.581c0,0.219-0.06,0.412-0.179,0.579c-0.121,0.167-0.299,0.291-0.535,0.373   C24.646,13.842,24.281,13.882,23.785,13.882z M25.049,15.289c-0.238-0.091-0.604-0.136-1.092-0.136H22.84v1.868   c0.004,0.264,0.016,0.418,0.031,0.464c0.021,0.057,0.053,0.098,0.104,0.121c0.047,0.021,0.176,0.035,0.385,0.035h0.629   c0.365,0,0.671-0.035,0.91-0.104c0.24-0.067,0.445-0.208,0.615-0.423c0.168-0.214,0.252-0.472,0.252-0.772   c0-0.256-0.061-0.471-0.18-0.65C25.467,15.513,25.287,15.377,25.049,15.289z M34.156,14.704c0,5.694-4.617,10.312-10.312,10.312   c-5.694,0-10.312-4.617-10.312-10.312c0-5.695,4.617-10.312,10.312-10.312C29.539,4.392,34.156,9.007,34.156,14.704z    M28.004,16.566c0-0.383-0.092-0.73-0.271-1.042c-0.181-0.312-0.428-0.554-0.733-0.727c-0.215-0.125-0.522-0.238-0.929-0.34   c0.375-0.128,0.679-0.29,0.908-0.486c0.229-0.195,0.404-0.421,0.527-0.676c0.121-0.256,0.182-0.526,0.182-0.811   c0-0.391-0.114-0.751-0.346-1.079c-0.23-0.327-0.561-0.579-0.988-0.754c-0.166-0.068-0.363-0.119-0.578-0.161V8.969h-1.461v1.419   h-0.938V8.969h-1.461v1.419h-2.229v1.193h0.342c0.228,0,0.38,0.021,0.461,0.062c0.08,0.041,0.138,0.097,0.171,0.167   c0.032,0.07,0.049,0.234,0.049,0.489v4.811c0,0.251-0.017,0.414-0.049,0.487c-0.033,0.071-0.091,0.127-0.171,0.166   c-0.081,0.04-0.233,0.06-0.461,0.06h-0.342v1.192h2.229v1.42h1.461v-1.42h0.832c0.037,0,0.071,0,0.106,0v1.42h1.461v-1.541   c0.246-0.047,0.461-0.106,0.646-0.181c0.506-0.202,0.896-0.495,1.17-0.881C27.865,17.446,28.004,17.024,28.004,16.566z M37,14.704   c0,6.569-4.879,12.144-11.373,13.024l-9.353,7.614c-0.092,0.074-0.203,0.111-0.315,0.111c-0.1,0-0.2-0.029-0.286-0.091   c-0.183-0.127-0.26-0.358-0.188-0.569l2.786-8.172c-0.729-0.34-1.412-0.75-2.055-1.207c-0.528,0.36-1.076,0.69-1.672,0.944   l-2.211,7.347l-3.182-6.604C3.995,26.459,0,22.068,0,16.736C0,10.962,4.681,6.282,10.455,6.282c1.028,0,2.016,0.164,2.953,0.443   c2.406-3.141,6.184-5.178,10.436-5.178C31.1,1.546,37,7.45,37,14.704z M36,14.704C36,8,30.547,2.547,23.844,2.547   C17.143,2.547,11.69,8,11.69,14.704c0,4.883,2.904,9.274,7.398,11.188c0.242,0.104,0.363,0.373,0.277,0.621l-2.371,6.952   l8.109-6.604c0.073-0.059,0.162-0.096,0.254-0.106C31.426,25.999,36,20.818,36,14.704z" fill="#ffffff"/>
</g>
<g>
</g>
<g>
</g>
<g>
</g>
<g>
</g>
<g>
</g>
<g>
</g>
<g>
</g>
<g>
</g>
<g>
</g>
<g>
</g>
<g>
</g>
<g>
</g>
<g>
</g>
<g>
</g>
<g>
</g>
</svg>
