<?xml version="1.0" encoding="iso-8859-1"?>
<!-- Generator: Adobe Illustrator 16.0.0, SVG Export Plug-In . SVG Version: 6.00 Build 0)  -->
<!DOCTYPE svg PUBLIC "-//W3C//DTD SVG 1.1//EN" "http://www.w3.org/Graphics/SVG/1.1/DTD/svg11.dtd">
<svg xmlns="http://www.w3.org/2000/svg" xmlns:xlink="http://www.w3.org/1999/xlink" version="1.1" id="Capa_1" x="0px" y="0px" width="512px" height="512px" viewBox="0 0 34.667 34.667" style="enable-background:new 0 0 34.667 34.667;" xml:space="preserve">
<g>
	<path d="M33.667,0H1C0.448,0,0,0.448,0,1v32.667c0,0.551,0.448,1,1,1h32.667c0.551,0,1-0.449,1-1V1C34.667,0.447,34.221,0,33.667,0   z M32.667,32.665H2V1.999h30.667V32.665z M12.73,29.764c0.429,0.159,0.867,0.297,1.315,0.411v0.966h1.315v-0.699   c0.646,0.098,1.301,0.162,1.973,0.162c1.137,0,2.233-0.158,3.289-0.429v0.966h1.313v-1.377c0.451-0.166,0.89-0.355,1.314-0.57   v0.633h1.314v-1.381c0.572-0.373,1.108-0.795,1.617-1.25h3.645v-1.314h-2.355c0.353-0.418,0.676-0.855,0.975-1.314h0.066V24.46   c0.535-0.838,0.975-1.739,1.314-2.69v0.168h1.314v-1.314h-0.966c0.218-0.85,0.351-1.727,0.396-2.631h0.57v-1.314h-0.567   c-0.023-0.445-0.066-0.883-0.132-1.314h0.701v-1.315h-0.965c-0.115-0.448-0.254-0.886-0.412-1.315h1.377V3.528h-9.205v1.376   c-1.239-0.46-2.563-0.738-3.944-0.807V3.528h-3.946v0.965c-0.448,0.115-0.886,0.251-1.315,0.411V3.528H3.527v9.205h1.376   c-0.159,0.429-0.296,0.867-0.411,1.315H3.527v5.261h0.7c0.137,0.909,0.364,1.789,0.677,2.629H3.528v9.205h9.205v-1.377H12.73   V29.764z M17.333,29.604c-6.777,0-12.271-5.494-12.271-12.271c0-6.776,5.494-12.271,12.271-12.271   c6.776,0,12.271,5.495,12.271,12.271C29.604,24.109,24.109,29.604,17.333,29.604z M23.251,4.84h6.574v6.575h-0.632   c-0.227-0.453-0.473-0.893-0.748-1.315h0.064V6.155h-3.945V6.22c-0.422-0.275-0.86-0.522-1.313-0.749V4.84z M4.841,11.416V4.841   h6.575v0.631c-0.453,0.227-0.893,0.474-1.315,0.749V6.156H6.156v3.945h0.065c-0.275,0.422-0.522,0.862-0.749,1.315H4.841z    M4.841,29.825v-6.576h0.631c0.227,0.453,0.474,0.894,0.749,1.315H6.156v3.943h3.945v-0.064c0.422,0.275,0.862,0.521,1.315,0.75   v0.632H4.841z M24.564,31.141v-1.314h1.314v1.314H24.564z M27.195,28.509h3.945v1.316h-1.315v1.313h-1.313v-1.313h-1.316V28.509   L27.195,28.509z M31.141,25.88h-1.314v-1.315h1.314V25.88z M19.411,18.509c0.144,0.214,0.215,0.47,0.215,0.775   c0,0.358-0.103,0.666-0.303,0.922c-0.201,0.256-0.445,0.424-0.732,0.504c-0.289,0.08-0.65,0.123-1.085,0.123h-0.751   c-0.25,0-0.403-0.015-0.459-0.041c-0.057-0.026-0.098-0.074-0.122-0.146c-0.02-0.053-0.032-0.235-0.037-0.555v-2.227h1.332   c0.583,0,1.018,0.055,1.304,0.162C19.057,18.139,19.27,18.298,19.411,18.509z M17.264,16.354h-1.128v-2.509h1.128   c0.659,0,1.116,0.042,1.373,0.123c0.255,0.081,0.452,0.218,0.587,0.41c0.135,0.192,0.203,0.422,0.203,0.693   c0,0.26-0.072,0.491-0.216,0.689c-0.144,0.198-0.354,0.348-0.637,0.446C18.29,16.307,17.854,16.354,17.264,16.354z M17.333,6.351   c-6.065,0-10.982,4.917-10.982,10.982c0,6.065,4.917,10.981,10.982,10.981c6.065,0,10.981-4.918,10.981-10.981   C28.314,11.269,23.398,6.351,17.333,6.351z M21.803,21.064c-0.328,0.461-0.794,0.812-1.396,1.054   c-0.222,0.088-0.478,0.157-0.771,0.215v1.84h-1.744v-1.694c-0.043,0-0.084,0-0.129,0h-0.99v1.694H15.03v-1.694h-2.659v-1.422h0.406   c0.271,0,0.454-0.023,0.55-0.07c0.096-0.047,0.163-0.111,0.203-0.199c0.04-0.086,0.06-0.279,0.06-0.58v-5.741   c0-0.304-0.02-0.499-0.06-0.583c-0.04-0.083-0.106-0.151-0.203-0.198c-0.096-0.049-0.279-0.074-0.55-0.074h-0.406v-1.424h2.659   v-1.693h1.744v1.693h1.119v-1.693h1.744v1.816c0.256,0.049,0.491,0.11,0.69,0.191c0.51,0.209,0.903,0.509,1.18,0.899   c0.272,0.392,0.412,0.821,0.412,1.289c0,0.339-0.073,0.662-0.217,0.966c-0.146,0.305-0.356,0.574-0.632,0.808   c-0.272,0.234-0.635,0.426-1.084,0.58c0.48,0.122,0.853,0.257,1.105,0.406c0.369,0.207,0.662,0.495,0.879,0.867   c0.217,0.371,0.324,0.785,0.324,1.242C22.296,20.104,22.132,20.605,21.803,21.064z" fill="#faa420"/>
</g>
<g>
</g>
<g>
</g>
<g>
</g>
<g>
</g>
<g>
</g>
<g>
</g>
<g>
</g>
<g>
</g>
<g>
</g>
<g>
</g>
<g>
</g>
<g>
</g>
<g>
</g>
<g>
</g>
<g>
</g>
</svg>
